<svg width="47" height="46" viewBox="0 0 47 46" fill="none" xmlns="http://www.w3.org/2000/svg">
<path d="M32.8961 8.96101C30.6134 7.53932 28.4596 6.97978 26.3063 5.55809C24.9708 4.6539 23.119 2.49981 21.5679 0.647949C21.2667 3.61998 20.3622 4.82568 19.3286 5.68711C17.1321 7.41031 15.7536 7.92673 13.8582 8.96065C12.2644 9.77931 3.60742 14.9482 3.60742 26.0604C3.60742 37.1734 12.954 45.3567 23.3342 45.3567C33.7151 45.3567 42.7168 37.8192 42.7168 26.4054C42.7164 14.991 34.2747 9.82279 32.8961 8.96101Z" fill="#985023"/>
<path d="M29.3978 35.7039C30.0867 35.7039 30.8192 35.7467 31.3363 36.0917C31.8531 36.436 32.1546 37.2115 32.3267 37.642C32.4989 38.0729 32.3267 38.331 31.9821 38.5031C31.6809 38.6756 31.6378 38.5893 31.3363 38.0298C31.0348 37.4699 30.776 36.9096 29.2688 36.9096C27.7612 36.9096 27.2872 37.4268 26.5552 38.0298C25.8228 38.6328 25.5644 38.8481 25.306 38.5031C25.0476 38.1588 25.1338 37.8142 25.6075 37.3833C26.0812 36.9524 26.8567 36.2635 27.5887 35.962C28.3211 35.6608 28.7089 35.7039 29.3978 35.7039ZM22.2481 40.6141C23.1095 41.303 24.4014 41.8629 27.1582 41.8629C29.915 41.8629 31.8527 41.0877 32.7145 40.4419C33.1023 40.14 33.2744 40.3988 33.3175 40.5709C33.3607 40.7431 33.4469 41.0018 33.1454 41.303C32.9301 41.5186 30.9489 42.8968 28.623 43.1121C26.2968 43.3273 23.153 43.4567 21.2576 41.7339C20.9561 41.4324 21.0424 41.0018 21.2576 40.8297C21.4732 40.6575 21.6454 40.5278 21.9038 40.5278C22.1622 40.5278 22.1187 40.5275 22.2481 40.6141Z" fill="white"/>
<path d="M11.6951 37.3402C14.9683 37.2974 15.5713 36.7371 18.4571 35.4452C34.0493 28.4676 36.9347 22.0933 37.495 20.6285C38.0549 19.1637 38.8732 16.7951 38.0118 14.1673C37.8754 13.7568 37.7501 13.3426 37.6362 12.9253C35.5644 10.6084 33.5074 9.34414 32.886 8.95601C30.6464 7.53469 28.4495 6.97478 26.2958 5.55345C24.9607 4.69203 23.1088 2.49517 21.5581 0.643311C21.2563 3.61498 20.3952 4.86453 19.3182 5.68247C17.1217 7.40567 15.7435 7.92245 13.8481 8.95601C12.255 9.81744 3.59766 14.9432 3.59766 26.0554C3.59766 29.6035 4.55036 32.853 6.18552 35.6324L6.61245 35.6173C7.517 36.436 8.93869 37.3833 11.6951 37.3402Z" fill="#FD853A"/>
<path d="M32.8864 8.95638C30.6467 7.53505 28.4499 6.97514 26.2961 5.55382C24.9611 4.6924 23.1092 2.49554 21.5585 0.643677C21.2566 3.61535 20.3956 4.86489 19.3185 5.68283C17.122 7.40604 15.7438 7.92282 13.8485 8.95638C12.255 9.81744 3.59766 14.9432 3.59766 26.0554C3.59766 29.6035 4.55036 32.853 6.18552 35.6324C9.67145 41.5592 16.2581 45.3514 23.3241 45.3514C33.7047 45.3514 42.7066 37.8138 42.7066 26.3997C42.7066 20.1319 40.1608 15.7475 37.6366 12.9253C35.5648 10.6088 33.5077 9.3445 32.8864 8.95638ZM38.1221 13.9984C40.9497 17.5339 42.3839 21.7063 42.3839 26.4001C42.3839 29.1241 41.865 31.6969 40.8418 34.0479C39.8766 36.2707 38.4624 38.2699 36.6878 39.9201C33.1577 43.2149 28.4118 45.029 23.3241 45.029C20.8074 45.029 18.3378 44.5482 15.9832 43.5998C13.6881 42.6796 11.5872 41.3349 9.79041 39.6362C6.00511 36.0586 3.92037 31.2358 3.92037 26.0558C3.92037 21.4425 5.41789 17.3431 8.37159 13.8712C10.6277 11.2194 13.0611 9.74952 14.0023 9.24064C14.4326 9.00749 14.8661 8.78011 15.3025 8.55855C16.602 7.89155 17.8296 7.26157 19.518 5.93691C20.4182 5.25302 21.3774 4.16915 21.7856 1.41741C23.2087 3.10935 24.8597 5.01116 26.1211 5.82479C27.2409 6.56438 28.3895 7.08224 29.5003 7.58285C30.5508 8.05686 31.6375 8.54669 32.7124 9.22915L32.753 9.2543C35.8968 11.2165 37.5712 13.3102 38.1221 13.9984Z" fill="#FD853A"/>
<path d="M21.7734 1.50476C22.3764 3.27073 22.2902 4.17528 22.2902 4.56304C22.2902 4.95081 22.0746 5.98473 21.3853 6.50115C21.0838 6.71678 20.9979 6.88892 20.9979 6.93204C20.9979 7.10418 21.3853 7.23356 21.3853 7.62096C21.3853 8.09498 21.17 9.04265 18.8873 11.3254C16.6042 13.6082 13.331 15.6325 10.7898 16.8813C8.2487 18.1305 7.04263 18.0446 6.69799 17.4416C6.35335 16.8386 6.82701 15.5035 8.42084 13.7375C10.0147 11.9712 15.0538 9.43006 15.0538 9.43006L21.3425 5.03706L21.6868 3.35698" fill="#FED9C2"/>
<path d="M21.774 1.46155C21.3862 4.30456 20.5248 5.16599 19.3619 6.07017C17.4234 7.53499 15.5284 8.43917 15.0979 8.65444C13.9781 9.21434 9.92937 11.4543 7.81876 14.6848C7.1726 15.6752 7.81876 16.063 7.94777 16.1488C8.07715 16.2351 9.5416 16.4072 12.6858 14.5123C15.8303 12.6169 17.2085 11.4971 18.9745 9.64488C19.9221 8.65444 20.0512 8.09453 20.0512 7.83578C20.0512 7.53463 19.8355 7.40525 19.4913 7.319C19.3188 7.27588 19.2756 7.18963 19.4913 7.06061C19.7065 6.93159 20.6107 6.5007 20.8263 6.32856C21.042 6.15642 22.0755 5.4675 22.1186 4.34733C22.1614 3.22752 22.0755 2.45199 21.774 1.46155ZM12.0831 32.7746C12.1262 29.4148 15.2704 26.2706 19.2332 26.2275C24.2724 26.1848 27.7612 31.2239 30.3027 31.1808C32.4557 31.1384 36.5907 26.9172 38.6154 26.9172C40.7688 26.9172 41.3722 29.1568 41.3722 30.4922C41.3722 31.8273 40.9413 34.2394 39.9073 35.7466C38.8738 37.2546 38.2276 37.8141 37.0219 37.7279C35.4716 37.5989 32.3702 32.7746 30.3886 32.6887C27.8909 32.6025 22.4633 37.9 18.1993 37.9C15.6154 37.9 14.8399 37.5126 13.9784 36.9523C12.6858 36.0485 12.04 34.67 12.0831 32.7746Z" fill="white"/>
</svg>
